# xmcd
# 
# Track frame offsets:
#     150
#     30655
#     35239
#     72016
#     96840
#     100051
#     122828
#     126435
#     144398
#     148379
#     178549
#     182741
#     207605
#     213297
#     249818
#     277119
# 
# Disc length: 4164
# 
# Revision: 1
# Processed by: cddbd v1.5.2PL0 Copyright (c) Steve Scherf et al.
# Submitted via: fre:ac v1.0.27
# 
DISCID=fa104210
DTITLE=The Claudia Quintet - Royal Toast
DYEAR=2010
DGENRE=Jazz
TTITLE0=Crane Merit
TTITLE1=Keramag Prelude
TTITLE2=Keramag
TTITLE3=Paterna Terra
TTITLE4=Ted versus Ted
TTITLE5=Armitage Shanks
TTITLE6=Drew with Drew
TTITLE7=Sphinx
TTITLE8=Matt on Matt
TTITLE9=Zurn
TTITLE10=Chris and Chris
TTITLE11=Royal Toast
TTITLE12="Ideal" Intro
TTITLE13="Ideal Standard"
TTITLE14=American Standard
TTITLE15=For Frederick Franck
EXTD=YEAR: 2010
EXTT0=
EXTT1=
EXTT2=
EXTT3=
EXTT4=
EXTT5=
EXTT6=
EXTT7=
EXTT8=
EXTT9=
EXTT10=
EXTT11=
EXTT12=
EXTT13=
EXTT14=
EXTT15=
PLAYORDER=
